<?xml version="1.0" standalone="no"?><!DOCTYPE svg PUBLIC "-//W3C//DTD SVG 1.1//EN" "http://www.w3.org/Graphics/SVG/1.1/DTD/svg11.dtd"><svg t="1589045009786" class="icon" viewBox="0 0 1024 1024" version="1.1" xmlns="http://www.w3.org/2000/svg" p-id="18993" xmlns:xlink="http://www.w3.org/1999/xlink" width="200" height="200"><defs><style type="text/css"></style></defs><path d="M653.85 568.67c0-1.06 0.17-2.16-1-2.76 0-1.84-0.07-3.68-0.11-5.52a21.29 21.29 0 0 0-1.75-7.75q-0.52-2.3-1-4.59a18.36 18.36 0 0 0-1.9-6.64 68 68 0 0 0-5.62-15.19 15.6 15.6 0 0 0-2.73-5.92l-3.1-6.34-3.74-6.66a62.61 62.61 0 0 0-6.7-10.4l-1.68-2.18-1.8-1.7a6.72 6.72 0 0 0-2.26-3.7l-1.71-2a4.57 4.57 0 0 1-2.77-2.9l0.1-0.12c-1.31-1.53-2.07-3.54-4-4.56-2.89-3.18-5.38-6.79-9.46-8.65l-0.81-0.83a3.36 3.36 0 0 0-2.14-2.58l-5.67-4.73c-2.48-2.12-4.8-4.49-8.25-5-1.17-3.24-4.4-3.9-6.89-5.5l-4.75-2.82-1.88-1c-2.41-1.5-4.76-3.13-7.55-3.88a32.86 32.86 0 0 0-8.52-3.81 14 14 0 0 0-6.48-2.25c-0.79-1-1.89-0.48-2.86-0.61-1.7-2.28-4.35-2.27-6.77-2.81h-2.7c-0.87-1.86-2.51-0.64-3.77-0.95-1.13-2-3.61-0.34-4.91-1.84h-0.94c-0.75-1-1.84-0.86-2.9-0.82l-13.25-1.94a87.47 87.47 0 0 0-19.9-0.89c-3.65 0-7.32-0.45-10.88 0.74l-3.3 0.17c-0.15 0.37 0.14 0.59 0.28 0.86h-0.29v-0.86a9.53 9.53 0 0 0-5.21 0.76 4.77 4.77 0 0 0-4.26 1.19c-0.14 0.35 0.18 0.52 0.3 0.77h-0.31v-0.81l-1.92-0.05c-2.06-0.77-3.67 1.27-5.66 0.88a4.37 4.37 0 0 0-3.16 0.78c-1.27 0-2.55 0-3.59 0.93a23.64 23.64 0 0 0-7.46 2.08l-2 0.69c-3.39 1.7-7.47 1.53-10.62 3.9l-5.4 2.14c-1 0.4-2.35 0.4-2.81 1.74-1.83 1.23-4.46 0.72-5.93 2.73a11.32 11.32 0 0 0-4.76 2.53 1.32 1.32 0 0 0-0.77 0.52 9.32 9.32 0 0 0-3.94 2.31c-2.25 1.17-4.58 2.23-6.22 4.29l-3.12 2.81c-1.71-0.22-2.68 1-3.75 2-1.86 1.24-4 2.14-4.81 4.51l-0.93 0.36a20.85 20.85 0 0 0-6.82 6.19l-0.12-0.07-6.38 6.41c-2.2 2.11-4.83 3.87-5.63 7.09l-0.9 0.33a27 27 0 0 0-6.52 8.49c-2.95 2.92-4.73 6.64-6.89 10.09a17.5 17.5 0 0 0-3.78 6.63 34.38 34.38 0 0 0-4.79 9.17 14 14 0 0 0-2.68 6c-1.52 3.07-3.37 6-3.69 9.55a18.59 18.59 0 0 0-2 6.46 5.83 5.83 0 0 0-1 3.75 39 39 0 0 0-2.63 10.66 42.15 42.15 0 0 0-2.08 13.88c-1 2.55-0.81 5.22-0.75 7.87 0 1 0 1.91-0.07 2.87 0.34 0.19 0.63 0 0.93-0.1a0.12 0.12 0 0 0 0 0.06h-0.93a74.57 74.57 0 0 0 0 14.2l0.06 2.87 0.16 2.9c0.6 1.61-0.14 3.39 0.62 5a0.52 0.52 0 0 0 0 0.64c0.14 2.24-0.53 4.59 0.91 6.66 0.06 1.64 0 3.32 0.82 4.82l0.31 1.76a4 4 0 0 0 0.76 3.06c0 1.59-0.16 3.23 1 4.56a4.21 4.21 0 0 0 0.89 3.06 5.57 5.57 0 0 0 1 3.73l3 10.23 3.45 7.68 1.78 3.82 2.27 4.64 2.7 5c-0.11 1.15 0.68 1.81 1.35 2.54l1.65 2.85 3 4.73 1.52 2.26c0.6 0.86 1.18 1.72 1.77 2.59a19 19 0 0 0 4.14 5.56 14.36 14.36 0 0 0 3.84 4.74l4.81 5.65c0.69 1.6 2.32 2.09 3.57 3l0.94 0.94 1.89 1.9c1 1.38 1.48 3.17 3.33 3.79l4.18 3.74a7.07 7.07 0 0 0 3 2.61l2.73 2.1a8.94 8.94 0 0 0 3.74 2.87 9.61 9.61 0 0 0 3.89 2.79l3.81 2.61 3.66 2.2a12.15 12.15 0 0 0 4.75 2.84 7.49 7.49 0 0 0 3.65 2A15.15 15.15 0 0 0 425 734l1.93 0.94a8.21 8.21 0 0 0 4 1.78 11.7 11.7 0 0 0 4.77 2 11.08 11.08 0 0 0 4.77 1.82 17.25 17.25 0 0 0 6.4 2 13.37 13.37 0 0 0 5.91 1.8 23 23 0 0 0 8.39 1.92 3.59 3.59 0 0 0 3.06 0.71c0.8-0.58 1.76-0.16 2.61-0.45a0.9 0.9 0 0 1-0.52 0.38c-0.67 0-1.53-0.44-2.09 0.08l1.66 0.24c1.2 0.92 2.61 0.8 4 0.78a24.54 24.54 0 0 0 7.55 1 34.37 34.37 0 0 0 10.37 0.8l3.86 0.1c5.8 0.15 11.61 0.58 17.35-0.69 3.1-0.06 6.21 0 9.18-1 0.26-0.36 0.08-0.69-0.08-1v1c1.7-0.05 3.46 0.13 5-0.88a1.51 1.51 0 0 0 1.79-1.05l1.75-0.1a9.66 9.66 0 0 0 6.64-0.94 16.45 16.45 0 0 0 6.64-1.82l4.67-1.31a20.32 20.32 0 0 0 6.7-2.49 10.37 10.37 0 0 0 4.86-1.87 31.26 31.26 0 0 0 8.5-3.8 22.43 22.43 0 0 0 6.67-3.4l2.77-2.13c1.41-1 2.77-2.18 4.66-2.18 3.32-1.2 5.57-4 8.52-5.74 4.91-3.21 10-6.24 13.43-11.19a3.21 3.21 0 0 0 2.81-1.9c3.73-3.13 7.35-6.36 10.1-10.44 1.76-2.34 4.74-3.65 5.73-6.66 2.81-3.13 6.1-5.93 7.15-10.29 4.33-3.44 6.42-8.28 8.38-13.22l-0.24-0.18h0.05l0.19 0.22a29.74 29.74 0 0 0 6.3-12.45l0.39-0.9c2-1.35 1.6-3.85 2.67-5.64 1.61-3.34 3.29-6.65 3-10.54 2.4-1.91 2.41-4.72 2.76-7.4 2.12-4.15 1.74-8.84 2.89-13.2 1.06-2.08 0.92-4.33 0.92-6.56 1-1.58 0.79-3.34 0.73-5.08v-1c-0.24-0.45-0.74-0.35-1.11-0.52 0.06-0.17 0.17-0.22 0.21-0.4l0.89 0.93a109.38 109.38 0 0 0 0-29.32c0.09-2.15 0.46-4.21-0.69-6.09z m-318.58 25.18v-0.31h0.22c-0.05 0.11-0.18 0.19-0.22 0.31z m2.86-33.48c0-0.08-0.06-0.14-0.07-0.22a2.08 2.08 0 0 0 0.13 0.22z m49.27 146.89a3.32 3.32 0 0 0 0.25-0.78c-0.06 0.3-0.31 0.45-0.26 0.78z m64.14-271c0.1 0 0.21-0.1 0.31-0.06s0 0.08 0 0.12-0.21 0-0.32-0.05z m69.49-3.7a1.36 1.36 0 0 1 0-0.14h0.32a1.74 1.74 0 0 0-0.35 0.15z m2.86 68.08v-0.15c0-0.05 0-0.05 0.1-0.05s0.01 0.17-0.11 0.22z m23.68-61.44v-0.15h0.13c-0.05 0.08-0.09 0.15-0.15 0.17zM852.71 244.85c-1.92-2.9-4.56-3.82-8.06-3.77-37.77 0.48-70.49 13.57-98.4 39-2.34 2.13-2.75 3.3-0.27 5.79q30.72 30.9 61.1 62.14c2.31 2.37 3.49 2.34 5.75 0A144.27 144.27 0 0 0 851 275.33c0.86-4.19 0.46-8.69 2.75-12.57v-18z" fill="#FAA643" p-id="18994"></path><path d="M790.48 453.9A325.51 325.51 0 0 0 483.67 266a326.84 326.84 0 0 0-77.5 11.8Q324 301.08 263.54 361.53c-4.28 4.29-8.63 8.5-12.83 13.22a16.58 16.58 0 0 1-0.36-5.56V153.58c0-22.51-12.74-37.83-34.48-41.51h-12.35c-10.26 0-20.54 0.07-30.8-0.06-2 0-2.46 0.39-2.43 2.43 0.14 10 0.06 19.9 0.06 29.85v470.1c1.32 7.11 0.87 14.39 2 21.53a324.67 324.67 0 0 0 106.79 196.3A320.84 320.84 0 0 0 357 883a336.26 336.26 0 0 0 77.33 24.79c11.46 2.2 23.05 2.95 34.59 4.26h49.29c7.62-1.15 15.37-0.7 23-1.85a332 332 0 0 0 108.71-36 324 324 0 0 0 92.8-74.78 319.58 319.58 0 0 0 56.45-94.79c11.65-30.48 18.87-62 20.52-94.52 1-19.66 0.9-39.42-1.52-59.12a321 321 0 0 0-27.69-97.09z m-50.62 151.42c-0.95 2.32-0.74 4.76-0.73 7.18q-0.1 1.62-0.18 3.23c-0.9 1.67-0.82 3.47-0.77 5.28q-0.93 5.71-1.87 11.41c-0.08 0.86-0.17 1.72-0.25 2.58-4 17.46-9 34.58-16 51.15-5.88 14-13.63 26.91-21.56 39.68a127.05 127.05 0 0 1-12.49 16.54c-1.22 1.43-3 2.52-3 4.7-1.06-0.15-1.57 0.44-2.26 1.23-31.66 36.17-70.36 61.43-116.5 75.14-1.67 0.5-3.32 0.9-4.39 2.41-4-0.64-7.61 1-11.34 1.89-12.35 2.43-24.81 4-37.31 5.43l-6.31 0.27h-20.85l-5.4-0.22c-6.49-0.87-13-1.83-19.55-1.8a10.65 10.65 0 0 1-3.5-0.81c-0.61 0.41-1.18 0.52-1.65-0.21a6 6 0 0 0-4-0.76 9.24 9.24 0 0 1-6.56-1.23l-26.61-7.31a12.46 12.46 0 0 1-5.62-1.17c-0.42-2.06-2.4-1.88-3.73-2.39a256 256 0 0 1-60.2-33c-5.26-3.83-9.56-9-15.8-11.53-0.65-0.27-0.9-1.51-1.34-2.3-2.51-2.63-4.9-5.39-8.07-7.3l-3-3c-3-2.67-6.06-5.26-8.33-8.62-11.3-14.27-22.1-28.87-31.23-44.66-2.56-4.66-4.22-9.79-7.51-14.06l-11.58-30.27c-0.91-2.22-0.24-5.07-2.64-6.69l-3.09-15.09-2.64-13.64-0.21-1.61c-1.84-2.67 0.29-5.82-1-8.54 0.06-1.81 0.2-3.63-0.7-5.31l-0.2-4.17c-1.07-3.92 0.3-8-0.79-11.91q0.49-14.18 1-28.35a14.11 14.11 0 0 0 0.73-6.16c0.07-0.83 0.15-1.66 0.23-2.49a10.11 10.11 0 0 0 0.73-5.12q0.12-2.83 0.25-5.65l-0.09 0.1c0.47-0.53 0.18-1.47 1-1.82 3.78-16.88 8.12-33.58 14.82-49.61a244.19 244.19 0 0 1 36.83-61.3c1.26-1.54 1.84-3.61 3.65-4.72 1.25-1.17 2.71-2.18 3.2-4a277.27 277.27 0 0 1 39.85-35.12 244.59 244.59 0 0 1 98.11-41.85 10.55 10.55 0 0 0 1.74-0.65c0.46-0.72 1-0.6 1.66-0.22a6.06 6.06 0 0 0 4-0.73c0.49-0.7 1.07-0.61 1.68-0.19l28.85-2.56 14.23-0.15c3.91 1.11 8-0.3 11.91 0.81l3.37 0.19a14.63 14.63 0 0 0 6.1 0.72l19.92 3a5.89 5.89 0 0 0 3.8 0.87c2.83 0.69 5.49 2.09 8.52 1.93 16.33 4.8 32.43 10.18 47.74 17.78a247 247 0 0 1 51.21 33.6c2 1.7 4.59 2.67 6.06 5l7.74 7.28a0.8 0.8 0 0 0 0.88 0.86l8.7 9.43c6.81 8.35 14.42 16.18 20.26 25.16 9 13.82 17.11 28.2 23.39 43.55a246.36 246.36 0 0 1 15.22 52.07 9.77 9.77 0 0 0 0.64 1.74c0.75 0.46 0.62 1 0.21 1.64q1.3 11.54 2.61 23.07v31.37z" fill="#FAA643" p-id="18995"></path><path d="M365.73 226c28.63-7.56 57.31-14.9 86-22.25 2.5-0.64 3-1.5 2.24-4.16-10.65-37-32.31-65.41-65.37-85.13-4.75-2.83-8-1.87-10.92 2.94-13.32 22.33-19.34 46.65-19.71 72.5a146.86 146.86 0 0 0 3.92 33.29c0.46 2.07 0.62 3.69 3.84 2.81zM649.1 228.48c2.77 0.77 3.37-0.22 4-2.67a142.16 142.16 0 0 0 4.59-36c-0.28-25-6.12-48.61-18.74-70.37-2.62-4.52-5.89-5.59-10.12-3.17-33.69 19.29-56 47.65-67.48 84.67-0.8 2.57 0 3.27 2.15 3.87q42.83 11.76 85.6 23.67z" fill="#FAA643" p-id="18996"></path></svg>