<?xml version="1.0" standalone="no"?><!DOCTYPE svg PUBLIC "-//W3C//DTD SVG 1.1//EN" "http://www.w3.org/Graphics/SVG/1.1/DTD/svg11.dtd"><svg t="1589787676155" class="icon" viewBox="0 0 1024 1024" version="1.1" xmlns="http://www.w3.org/2000/svg" p-id="3854" xmlns:xlink="http://www.w3.org/1999/xlink" width="200" height="200"><defs><style type="text/css"></style></defs><path d="M512 748.511c-21.702 0-39.44 3.898-39.44-39.474V433.284c0-43.47 17.738-39.473 39.44-39.473s39.44-3.898 39.44 39.473v275.753c-0.033 43.47-17.77 39.474-39.44 39.474z m0-394.042a39.407 39.407 0 1 1 39.374-39.374A39.374 39.374 0 0 1 512 354.469zM512 1024a512 512 0 1 1 512-512 512.66 512.66 0 0 1-512 512z m0-945.218A433.218 433.218 0 1 0 945.218 512 433.218 433.218 0 0 0 512 78.782z" fill="" p-id="3855"></path></svg>