<?xml version="1.0" standalone="no"?><!DOCTYPE svg PUBLIC "-//W3C//DTD SVG 1.1//EN" "http://www.w3.org/Graphics/SVG/1.1/DTD/svg11.dtd"><svg t="1553258103092" class="icon" style="" viewBox="0 0 1024 1024" version="1.1" xmlns="http://www.w3.org/2000/svg" p-id="34467" xmlns:xlink="http://www.w3.org/1999/xlink" width="200" height="200"><defs><style type="text/css"></style></defs><path d="M475.4 384h73.2v416h-73.2z" p-id="34468" fill="#2788dd"></path><path d="M512 0C229.2 0 0 229.2 0 512s229.2 512 512 512 512-229.2 512-512S794.8 0 512 0z m0 950.9C270 950.9 73.1 754 73.1 512S270 73.1 512 73.1 950.9 270 950.9 512 754 950.9 512 950.9z" p-id="34469" fill="#2788dd"></path><path d="M512 288m-48 0a48 48 0 1 0 96 0 48 48 0 1 0-96 0Z" p-id="34470" fill="#2788dd"></path></svg>