<?xml version="1.0" standalone="no"?><!DOCTYPE svg PUBLIC "-//W3C//DTD SVG 1.1//EN" "http://www.w3.org/Graphics/SVG/1.1/DTD/svg11.dtd"><svg t="1589276627733" class="icon" viewBox="0 0 1164 1024" version="1.1" xmlns="http://www.w3.org/2000/svg" p-id="3411" xmlns:xlink="http://www.w3.org/1999/xlink" width="227.34375" height="200"><defs><style type="text/css"></style></defs><path d="M1136.234 498.457l-1.642-4.926-67.307-256.092-1.642-4.926-5.746 1.642-77.155 20.519c-41.041-66.486-98.497-120.659-164.982-159.236-104.242-60.74-232.29-81.261-358.693-47.606-125.584 34.474-226.543 115.733-287.284 220.798-38.578 66.486-59.919 141.18-62.382 219.977l-77.977 20.519-4.926 1.642 1.642 5.746 68.948 255.27 1.642 5.746 4.926-1.642 77.155-20.519c41.862 66.486 98.497 120.659 164.982 159.236 105.063 60.74 233.11 80.438 358.693 47.606 126.406-34.474 226.543-116.555 287.284-220.798 38.578-66.486 59.919-142 63.202-220.798l77.155-20.519 4.102-1.642zM191.482 279.299c57.457-100.14 153.492-178.115 273.329-209.307 119.838-32.833 242.139-12.311 342.277 45.145 61.561 35.295 114.093 84.544 152.669 145.284l-36.115 9.85c-35.295-50.89-82.081-93.572-134.611-124.762-91.931-52.532-204.381-70.59-314.37-41.041-110.811 29.549-199.458 100.96-251.988 192.891-30.369 53.354-49.248 113.271-54.174 174.833l-36.937 9.85c3.282-72.231 24.625-141.18 59.919-202.74zM911.333 273.555l-732.162 195.351c4.926-59.098 22.985-115.733 52.532-165.804 51.712-89.468 137.075-159.236 245.422-187.966 107.525-28.727 215.873-11.491 305.342 40.22 50.89 28.727 95.213 69.77 128.867 118.197zM970.43 729.925c-56.637 100.14-153.492 178.115-273.329 210.127s-242.139 12.311-341.456-45.145c-61.561-35.295-114.093-84.544-153.492-145.284l36.115-9.85c36.115 50.89 82.081 93.572 134.611 123.941 91.931 53.354 203.561 71.411 314.37 41.862 109.988-29.549 198.635-101.781 251.988-192.891 30.369-53.354 49.248-112.451 54.174-174.833l36.115-9.85c-2.462 71.411-23.805 141.18-59.098 201.92zM251.402 736.492l731.342-196.174c-4.926 59.098-22.985 115.733-51.712 166.624-51.712 89.468-137.895 159.236-245.422 187.966-108.347 28.727-216.693 11.491-306.162-41.041-50.068-27.907-94.393-68.948-128.047-117.377zM104.477 763.579l-64.843-245.422 1017.804-272.509 65.665 245.422-1018.625 272.509z" p-id="3412" fill="#13227a"></path><path d="M857.979 391.751l29.549-8.209-5.746-19.698-28.727 8.209-12.311-45.965-20.519 4.926 12.311 45.965-91.109 24.625 4.926 19.698 91.109-24.625 27.087 100.96c3.282 10.671-1.642 17.237-13.955 20.519-3.282 0.82-8.209 2.462-14.775 4.102-6.566 1.642-11.491 2.462-14.775 3.282 1.642 2.462 3.282 4.926 4.926 9.85 2.462 4.102 4.102 8.209 4.102 10.671 16.416-4.102 27.087-8.209 32.833-10.671 21.34-4.102 28.727-18.058 22.985-37.757l-27.907-105.884z" p-id="3413" fill="#13227a"></path><path d="M456.604 541.139l-4.926-18.058-91.109 24.625-9.85-35.295 78.797-21.34-4.926-18.878-78.797 20.519-9.029-33.653-20.519 5.746 9.029 34.474-78.797 21.34 4.926 18.878 78.797-21.34 9.85 35.295-92.752 25.445 4.926 18.058 81.261-22.162c-11.491 33.653-33.653 64.022-64.022 92.752 4.926 3.282 10.671 7.388 16.416 13.132 31.19-27.907 51.712-59.098 62.382-95.213l23.805 87.006 20.519-5.746-23.805-87.006c25.445 23.805 58.277 40.22 100.14 49.248l7.388-20.519c-39.399-5.746-72.231-20.519-101.781-43.503l82.081-23.805z" p-id="3414" fill="#13227a"></path><path d="M733.216 358.919l-22.985 0.82c-1.642 39.399-9.029 75.515-21.34 109.168 4.102 7.388 9.029 15.596 12.311 24.625 5.746-11.491 10.671-24.625 13.955-37.757l31.19 115.733 20.519-4.926-41.041-153.492c2.462-18.058 4.926-36.115 7.388-54.174z" p-id="3415" fill="#13227a"></path><path d="M609.274 560.018c18.058-22.162 29.549-49.248 35.295-79.618l-4.926-18.878-60.74 16.416-8.209-31.19 89.468-24.625-4.102-18.058-89.468 24.625-8.209-27.907-20.519 4.926 8.209 28.727-92.752 24.625 4.926 18.878 91.931-26.267 8.209 31.19-74.694 19.698 4.926 18.878 18.058-4.926c19.698 25.445 41.862 42.683 66.486 53.354-18.058 15.596-44.324 32.012-78.797 48.428 6.566 6.566 11.491 12.311 15.596 17.237 36.937-20.519 64.843-39.399 84.544-56.637 22.985 5.746 56.637 7.388 100.96 4.102 0-2.462 0.82-5.746 2.462-10.671 1.642-4.926 2.462-9.85 2.462-11.491-37.757 4.926-68.127 4.926-91.109-0.82zM588.753 553.452c-21.34-6.566-41.862-20.519-60.74-42.683l94.393-25.445c-7.388 27.087-18.058 50.068-33.653 68.127z" p-id="3416" fill="#13227a"></path><path d="M773.435 436.075l-12.311 13.955c2.462 2.462 5.746 4.102 9.85 8.209 18.878 13.955 33.653 24.625 42.683 32.833l13.955-16.416c-19.698-15.596-37.757-28.727-54.174-38.578z" p-id="3417" fill="#13227a"></path></svg>