<?xml version="1.0" standalone="no"?><!DOCTYPE svg PUBLIC "-//W3C//DTD SVG 1.1//EN" "http://www.w3.org/Graphics/SVG/1.1/DTD/svg11.dtd"><svg t="1589253821288" class="icon" viewBox="0 0 1024 1024" version="1.1" xmlns="http://www.w3.org/2000/svg" p-id="3388" xmlns:xlink="http://www.w3.org/1999/xlink" width="200" height="200"><defs><style type="text/css"></style></defs><path d="M609.275955 116.377317a21.86499 21.86499 0 0 1-22.759989-14.874994l-24.269989-72.696966a21.86499 21.86499 0 1 1 41.549981-13.812994L628.009947 87.69033a21.80999 21.80999 0 0 1-13.812994 27.959987 21.47399 21.47399 0 0 1-4.919998 1.062999zM869.699836 285.202239a28.407987 28.407987 0 0 1-4.361998 0l-76.163965-8.108996a21.92099 21.92099 0 0 1 4.640998-43.56198l76.163965 8.107996a21.92099 21.92099 0 0 1-0.28 43.56298zM736.551897 146.574303a21.86499 21.86499 0 0 1-17.502992-37.299983l59.163973-58.939973a21.92099 21.92099 0 0 1 30.923986 31.035986l-59.163973 58.939973a21.80999 21.80999 0 0 1-13.419994 6.263997zM709.429909 998.751912H399.126052a12.637994 12.637994 0 0 0 0 25.219988H709.429909a12.637994 12.637994 0 1 0 0-25.219988z m164.407925-48.483978H397.280053l0.614999 23.989989h475.942782a12.022994 12.022994 0 1 0 0-23.989989z" p-id="3389" fill="#8a8a8a"></path><path d="M463.267022 954.405932L760.765886 845.639982a81.643963 81.643963 0 0 0 48.929977-104.571952l-21.47299-59.163973a13.979994 13.979994 0 1 0-26.338988 9.506996l21.249991 59.219972a53.627975 53.627975 0 0 1-32.153986 68.669969L412.100046 943.111937a53.627975 53.627975 0 0 1-68.670969-32.154985L165.712159 415.945179a53.739975 53.739975 0 0 1 32.098985-68.726968l338.935845-123.529944a53.627975 53.627975 0 0 1 68.669968 31.875986l55.921974 159.989926a13.979994 13.979994 0 1 0 26.729988-9.506995l-56.312974-159.989927a81.643963 81.643963 0 0 0-104.571952-48.929977l-338.879844 123.751943a81.755962 81.755962 0 0 0-48.986978 104.571952l177.828918 495.066772a81.755962 81.755962 0 0 0 60.337973 52.118977 69.565968 69.565968 0 0 0 12.358994 1.620999h8.331996z" p-id="3390" fill="#8a8a8a"></path><path d="M440.116033 797.101004a11.686995 11.686995 0 0 0-8.891996 0l-41.269981 15.377993a11.463995 11.463995 0 0 0-6.485997 6.039997 11.575995 11.575995 0 0 0 10.568995 16.439993 12.749994 12.749994 0 0 0 4.025998-0.726l41.269981-15.434993a11.631995 11.631995 0 0 0 0.783-21.41699z m86.28596-32.153985a11.686995 11.686995 0 0 0-8.891996-0.336l-56.255974 20.96999A11.575995 11.575995 0 0 0 460.470024 807a11.575995 11.575995 0 0 0 8.890996 0.335999l56.535974-20.96999a11.463995 11.463995 0 0 0 6.486997-6.039997 11.183995 11.183995 0 0 0 0.335999-8.835996 11.575995 11.575995 0 0 0-6.319997-6.541997z m89.472959-33.552985a11.686995 11.686995 0 0 0-8.890996-0.335l-56.256974 20.969991a11.575995 11.575995 0 0 0-0.782999 21.41799 11.575995 11.575995 0 0 0 8.891996 0.335l56.535974-20.969991a11.463995 11.463995 0 0 0 6.485997-6.039997 11.183995 11.183995 0 0 0 0.335999-8.834996 11.575995 11.575995 0 0 0-6.319997-6.542997z m-215.909901-77.561964a11.742995 11.742995 0 0 0-14.874993-6.821997l-35.285984 13.139994a11.631995 11.631995 0 0 0 4.025999 22.36999 11.183995 11.183995 0 0 0 4.081998-0.728l35.341984-13.196994a11.631995 11.631995 0 0 0 6.709996-14.762993z m19.179992 4.473998a12.189994 12.189994 0 0 0 4.026998-0.727l56.255974-20.96999a11.575995 11.575995 0 0 0 6.486997-6.095997 11.183995 11.183995 0 0 0 0.335-8.835996 11.631995 11.631995 0 0 0-14.874993-6.541997l-56.255975 20.68999a11.183995 11.183995 0 0 0-6.653996 6.039997 11.575995 11.575995 0 0 0 10.512995 16.439993z m86.28596-31.986985a11.183995 11.183995 0 0 0 4.081998-0.783l56.256974-20.96999a11.183995 11.183995 0 0 0 6.486997-6.207998 11.631995 11.631995 0 0 0-5.591997-15.377993 11.910995 11.910995 0 0 0-8.891996 0l-56.367974 20.969991a11.463995 11.463995 0 0 0-6.486997 5.592997 11.575995 11.575995 0 0 0 10.512995 16.775993z m0-5.591998z m153.44693-63.414971a11.631995 11.631995 0 0 0-14.929994-6.821997l-56.256974 20.969991a11.742995 11.742995 0 0 0-7.381996 12.973994 11.575995 11.575995 0 0 0 11.183995 9.506995 11.183995 11.183995 0 0 0 4.026998-0.726999l56.255974-20.969991a11.463995 11.463995 0 0 0 6.486997-6.039997 11.686995 11.686995 0 0 0 0.615-8.891996zM877.472832 404.593184l-23.095989-19.348991a26.729988 26.729988 0 0 0-12.860994-5.982997 28.351987 28.351987 0 0 0-7.213997 0 26.841988 26.841988 0 0 0-18.453991 10.120995l-23.76699 29.414987-1.788999 2.515999v0.390999L641.93394 605.348092c-0.895 1.398999-3.746998 10.121995-3.746998 10.121996l-34.614984 85.66996v1.566999a15.825993 15.825993 0 0 0 5.591997 10.847995 15.489993 15.489993 0 0 0 7.437997 3.466999 14.706993 14.706993 0 0 0 4.137998 0h1.565999l76.946965-51.558976c7.828996-5.087998 6.206997-2.906999 8.275996-5.591998l161.163926-200.419908 12.637994-15.713993a28.239987 28.239987 0 0 0-3.857998-39.143982z m-9.618995 27.959987L844.199848 461.912158l-30.812986 38.752982-118.719946 147.239933-72.360967 49.489977 33.551985-81.924962 148.245932-184.034916 0.895-1.397999 24.101988-29.917987a9.897995 9.897995 0 0 1 6.709997-3.746998 9.338996 9.338996 0 0 1 2.796999 0 10.233995 10.233995 0 0 1 4.752998 2.180999l22.982989 19.292991a10.233995 10.233995 0 0 1 3.802999 7.157997 10.400995 10.400995 0 0 1-2.292999 7.716996z" p-id="3391" fill="#8a8a8a"></path></svg>