<?xml version="1.0" standalone="no"?><!DOCTYPE svg PUBLIC "-//W3C//DTD SVG 1.1//EN" "http://www.w3.org/Graphics/SVG/1.1/DTD/svg11.dtd"><svg t="1589515182696" class="icon" viewBox="0 0 1024 1024" version="1.1" xmlns="http://www.w3.org/2000/svg" p-id="3422" xmlns:xlink="http://www.w3.org/1999/xlink" width="200" height="200"><defs><style type="text/css"></style></defs><path d="M516.75664516 20.48c-274.29987097 0-496.80516129 223.03380645-496.80516129 497.33367742S242.45677419 1015.14735484 517.28516129 1015.14735484s497.33367742-222.50529032 497.33367742-497.33367742S791.58503226 20.48 516.75664516 20.48z m-24.31174193 227.79045161c79.27741935 0 143.7563871 62.89341935 143.75638709 141.11380645 0 77.69187097-64.47896774 141.11380645-143.75638709 141.11380646S348.68851613 467.60464516 348.68851613 389.38425806c0.52851613-78.2203871 64.47896774-141.11380645 143.7563871-141.11380645z m255.27329032 516.36025807H245.09935484v-24.31174194c0-108.87432258 140.05677419-197.13651613 251.57367742-197.13651613 110.9883871 0 251.57367742 88.26219355 251.57367742 197.13651613v24.31174194z m117.85909677-198.72206452l-75.57780645 75.57780645c-4.22812903 4.22812903-11.09883871 4.22812903-15.32696774 0-4.22812903-4.22812903-4.22812903-11.09883871 0-15.32696774l57.60825806-57.60825806h-158.55483871c-5.81367742 0-11.09883871-4.75664516-11.09883871-11.09883871 0-5.81367742 4.75664516-11.09883871 11.09883871-11.09883871h158.55483871l-57.60825806-57.60825807c-4.22812903-4.22812903-4.22812903-11.09883871 0-15.32696774 4.22812903-4.22812903 11.09883871-4.22812903 15.32696774 0l75.57780645 75.57780645c2.11406452 2.11406452 3.17109677 5.28516129 3.17109678 8.45625807 0.52851613 3.17109677-0.52851613 6.34219355-3.17109678 8.45625806z" fill="#bfbfbf" p-id="3423"></path></svg>